<!-- <svg class="absolute w-12 h-12 text-gray-400 -left-1" fill="currentColor" viewBox="0 0 20 20" xmlns="http://www.w3.org/2000/svg"><path fill-rule="evenodd" d="M10 9a3 3 0 100-6 3 3 0 000 6zm-7 9a7 7 0 1114 0H3z" clip-rule="evenodd"></path></svg> -->
<svg class="w-6 h-6 text-gray-800 dark:text-white" aria-hidden="true" xmlns="http://www.w3.org/2000/svg" width="24" height="24" fill="currentColor" viewBox="0 0 24 24">
  <path fill-rule="evenodd" d="M12 4a4 4 0 1 0 0 8 4 4 0 0 0 0-8Zm-2 9a4 4 0 0 0-4 4v1a2 2 0 0 0 2 2h8a2 2 0 0 0 2-2v-1a4 4 0 0 0-4-4h-4Z" clip-rule="evenodd"/>
</svg>
